{
  "asset": {
    "version": "2.0",
    "generator": "threejs-mid-part7-sample-generator"
  },
  "scene": 0,
  "scenes": [
    {
      "nodes": [
        0
      ]
    }
  ],
  "nodes": [
    {
      "mesh": 0
    }
  ],
  "meshes": [
    {
      "primitives": [
        {
          "attributes": {
            "POSITION": 0,
            "NORMAL": 1,
            "TEXCOORD_0": 2
          },
          "indices": 3,
          "material": 0
        }
      ]
    }
  ],
  "materials": [
    {
      "pbrMetallicRoughness": {
        "baseColorTexture": {
          "index": 0
        },
        "metallicFactor": 0.1,
        "roughnessFactor": 0.8
      }
    }
  ],
  "textures": [
    {
      "source": 0
    }
  ],
  "images": [
    {
      "uri": "texture-large.png"
    }
  ],
  "accessors": [
    {
      "bufferView": 0,
      "componentType": 5126,
      "count": 1617,
      "type": "VEC3",
      "min": [
        -1,
        -1,
        -1
      ],
      "max": [
        1,
        1,
        1
      ]
    },
    {
      "bufferView": 1,
      "componentType": 5126,
      "count": 1617,
      "type": "VEC3"
    },
    {
      "bufferView": 2,
      "componentType": 5126,
      "count": 1617,
      "type": "VEC2"
    },
    {
      "bufferView": 3,
      "componentType": 5123,
      "count": 8928,
      "type": "SCALAR"
    }
  ],
  "bufferViews": [
    {
      "buffer": 0,
      "byteOffset": 0,
      "byteLength": 19404,
      "target": 34962
    },
    {
      "buffer": 0,
      "byteOffset": 19404,
      "byteLength": 19404,
      "target": 34962
    },
    {
      "buffer": 0,
      "byteOffset": 38808,
      "byteLength": 12936,
      "target": 34962
    },
    {
      "buffer": 0,
      "byteOffset": 51744,
      "byteLength": 17856,
      "target": 34963
    }
  ],
  "buffers": [
    {
      "byteLength": 69600,
      "uri": "model.bin"
    }
  ]
}